<svg xmlns="http://www.w3.org/2000/svg" xmlns:xlink="http://www.w3.org/1999/xlink" width="198.427" height="23.605" viewBox="0 0 198.427 23.605">
  <defs>
    <clipPath id="clip-path">
      <rect id="사각형_5" data-name="사각형 5" width="198.427" height="23.605" fill="#fbf9ef"/>
    </clipPath>
  </defs>
  <g id="그룹_1" data-name="그룹 1" clip-path="url(#clip-path)">
    <path id="패스_1" data-name="패스 1" d="M48.09.7V18.854h.565v-17q3.153,8.2,6.3,16.407c.1.251.173.441.25.6H57.4q2.508-6.554,5.029-13.1l1.491-3.871v16.97h1.52V.159c-.294,0-.59,0-.883-.008a.649.649,0,0,0-.716.493Q61.309,7.28,58.756,13.908l-.789,2.053c-.245.639-.491,1.278-.748,1.938l-.22.567c-.029-.069-.053-.133-.078-.2L55.8,15.353Q52.975,8,50.157.644a.643.643,0,0,0-.671-.493h-.047c-.446.015-.9.011-1.342.01H48.09V.7Zm15.922.529Z" transform="translate(1.983 0.007)" fill="#fbf9ef"/>
    <path id="패스_2" data-name="패스 2" d="M16.856,14.33a.155.155,0,0,0-.165.059l-.072.1c-.045.066-.091.131-.14.194-.14.181-.275.365-.41.551a10.534,10.534,0,0,1-.935,1.159A7.148,7.148,0,0,1,10,18.6H9.911a7.2,7.2,0,0,1-5.2-2.359A9.5,9.5,0,0,1,2.142,9.629,9.315,9.315,0,0,1,4.849,2.724,6.885,6.885,0,0,1,11.465.659a7.613,7.613,0,0,1,4.966,3.662l.3.466a.144.144,0,0,0,.132.068V2.647a.64.64,0,0,0-.061-.07A10.026,10.026,0,0,0,8.836.067,10.021,10.021,0,0,0,1.757,4.158,8.946,8.946,0,0,0,.212,11.4,9.368,9.368,0,0,0,6.95,18.624a10.91,10.91,0,0,0,3.226.51,10.075,10.075,0,0,0,6.645-2.616l.03-.025.01-.009V14.332Z" transform="translate(0 0)" fill="#fbf9ef"/>
    <path id="패스_3" data-name="패스 3" d="M33.753,18.589c-1.8-4.73-6.674-17.4-6.674-17.4-.365-.952-.431-1-1.394-1.041l-.09,0-.071,0a.814.814,0,0,0-.845.638C23.4,4.127,19.166,15.169,18.332,17.347q-.256.668-.511,1.336a.612.612,0,0,1-.093.17H18.3c0-.012.007-.027.011-.039l.02-.053c.1-.258.195-.517.291-.777.053-.143.108-.288.162-.433h0l.094-.245.187-.484L21.2,11.279H29l2.191,5.709,0,.01.712,1.854h2a.761.761,0,0,1-.154-.264m-4.965-7.853h-7.38l3.693-9.6,3.688,9.6Z" transform="translate(0.731 0.006)" fill="#fbf9ef"/>
    <path id="패스_4" data-name="패스 4" d="M90.053.7V18.854h.564v-17q3.152,8.2,6.3,16.407c.1.251.174.441.251.6h2.194q2.507-6.554,5.028-13.1l1.491-3.871v16.97h1.52V.159c-.294,0-.589,0-.882-.008a.651.651,0,0,0-.717.493q-2.536,6.636-5.087,13.264l-.789,2.053c-.245.639-.493,1.278-.749,1.938l-.219.567c-.029-.069-.054-.133-.079-.2l-1.12-2.915Q94.935,8,92.118.644a.642.642,0,0,0-.671-.493H91.4c-.445.015-.9.011-1.342.01h-.007V.7Zm15.92.529Z" transform="translate(3.714 0.007)" fill="#fbf9ef"/>
    <path id="패스_5" data-name="패스 5" d="M135.936.154v16.2c-.019-.03-.037-.057-.055-.086l-1.026-1.619Q130.4,7.609,125.952.571A.772.772,0,0,0,125.2.152c-.473.015-.959.011-1.425.01h-.05V18.854h.566V1.336l.009.014,10.775,17.028c.256.4.393.55.719.55a3.237,3.237,0,0,0,.576-.076.154.154,0,0,0,.125-.151V.154Z" transform="translate(5.102 0.007)" fill="#fbf9ef"/>
    <path id="패스_6" data-name="패스 6" d="M112.81,18.355v-7.4h5.119v-.529l-5.123,0V.666h7.718V.16h-9.61V18.842s7,0,9.61.01v-.5s-7.442,0-7.713,0" transform="translate(4.574 0.007)" fill="#fbf9ef"/>
    <path id="패스_7" data-name="패스 7" d="M152.073.7V.153H138.3V.7h5.936V18.852h1.9V.7c.268,0,5.935,0,5.935,0" transform="translate(5.703 0.007)" fill="#fbf9ef"/>
    <path id="패스_8" data-name="패스 8" d="M38.028,18.353V.143H36.144V18.854h9.47v-.5Z" transform="translate(1.491 0.006)" fill="#fbf9ef"/>
    <path id="패스_9" data-name="패스 9" d="M77.875,0h-.028A9.817,9.817,0,0,0,67.828,9.538a9.285,9.285,0,0,0,2.917,6.772,10.188,10.188,0,0,0,7.069,2.824h.035a10.254,10.254,0,0,0,4.255-.923l.016-.007c.743-.317,1.5-1.136,1.781-.949.439.288-.149,1.165-.606,1.661a14.644,14.644,0,0,1-5.953,4.092l.192.6c5.653-1.674,10.308-5.712,10.308-14.028A9.791,9.791,0,0,0,77.875,0m5.174,16.366a7.122,7.122,0,0,1-5.221,2.261h-.011a7.076,7.076,0,0,1-5.193-2.259,9.681,9.681,0,0,1-2.582-8.05,9.081,9.081,0,0,1,3.036-5.969A7.091,7.091,0,0,1,83,2.727a9.608,9.608,0,0,1,2.722,6.838,9.73,9.73,0,0,1-2.675,6.8" transform="translate(2.797 0)" fill="#fbf9ef"/>
    <path id="패스_10" data-name="패스 10" d="M171.256,18.349v-7.4h5.119v-.528l-5.123,0V.66h7.718V.154h-9.61V18.836s7,0,9.61.01v-.5s-7.442,0-7.713,0" transform="translate(6.984 0.007)" fill="#fbf9ef"/>
    <path id="패스_11" data-name="패스 11" d="M183.235,18.349v-7.4h5.119v-.528l-5.123,0V.66h7.718V.154h-9.61V18.836s7,0,9.61.01v-.5s-7.442,0-7.714,0" transform="translate(7.478 0.007)" fill="#fbf9ef"/>
    <path id="패스_12" data-name="패스 12" d="M167.387,18.148a2.153,2.153,0,0,1-1.631.318,2,2,0,0,1-1.236-.948l-.307-.481c-.336-.523-.685-1.064-1-1.609a4.845,4.845,0,0,0-2.178-2.124,6.7,6.7,0,0,0,5.4-7.519,6.767,6.767,0,0,0-6.6-5.62C158.222.143,156.586.149,155,.156L153.9.16v18.7h1.893V13.434c.292,0,.581,0,.868,0,.827,0,1.608.006,2.406-.01a1.176,1.176,0,0,1,1.126.615c.671,1.086,1.4,2.238,2.368,3.735a3.363,3.363,0,0,0,2.243,1.47,3.474,3.474,0,0,0,2.69-.636,3.078,3.078,0,0,0,.4-.394l-.224-.266s-.226.159-.282.2m-7.841-5.221c-.509-.009-1.022-.012-1.535-.012-.4,0-.79,0-1.179,0l-1.051,0V.7q.629,0,1.252-.01c1.086-.012,2.113-.024,3.155.029a3.677,3.677,0,0,1,2.674,1.555,7.347,7.347,0,0,1-.338,9.422,3.927,3.927,0,0,1-2.978,1.234" transform="translate(6.346 0.007)" fill="#fbf9ef"/>
  </g>
</svg>
