<svg xmlns="http://www.w3.org/2000/svg" xmlns:xlink="http://www.w3.org/1999/xlink" width="55.621" height="92.18" viewBox="0 0 55.621 92.18">
  <defs>
    <clipPath id="clip-path">
      <rect id="사각형_13" data-name="사각형 13" width="55.621" height="92.18" fill="none"/>
    </clipPath>
  </defs>
  <g id="그룹_58" data-name="그룹 58" clip-path="url(#clip-path)">
    <path id="패스_16" data-name="패스 16" d="M50.571,29.45A23.363,23.363,0,0,0,27.234,52.787v59.546H73.908V52.787A23.364,23.364,0,0,0,50.571,29.45m0,1.16A22.212,22.212,0,0,1,72.228,48.024L62.952,62.287a15.585,15.585,0,1,1,.584-18.2l.962-.649A16.755,16.755,0,0,0,34.185,56.15L28.91,48.044A22.211,22.211,0,0,1,50.571,30.61m-1.07,51.2H35.885V60.889ZM40.857,66.4a16.723,16.723,0,0,0,19.351.105L50.57,81.33Zm-4.972,16.57H49.99v28.2H35.885Zm15.266,0H65.309v28.2H51.15Zm14.159-1.16H51.639L63.892,62.97c.247-.323.487-.652.712-1l-.045-.03.751-1.155ZM28.394,52.787a22.278,22.278,0,0,1,.218-3.074l6.112,9.393v52.067h-6.33Zm44.354,58.386H66.469V59.006l6.058-9.316a22.247,22.247,0,0,1,.221,3.1Z" transform="translate(-22.761 -24.613)" fill="#fbf9ef"/>
    <path id="패스_17" data-name="패스 17" d="M27.81,0A27.841,27.841,0,0,0,0,27.81V92.18H55.621V27.81A27.842,27.842,0,0,0,27.81,0M54.46,91.019H1.16V27.81a26.65,26.65,0,1,1,53.3,0Z" fill="#fbf9ef"/>
  </g>
</svg>
