<svg xmlns="http://www.w3.org/2000/svg" xmlns:xlink="http://www.w3.org/1999/xlink" width="190" height="22.524" viewBox="0 0 190 22.524">
  <defs>
    <clipPath id="clip-path">
      <rect id="사각형_214" data-name="사각형 214" width="190" height="22.524" fill="none"/>
    </clipPath>
  </defs>
  <g id="그룹_835" data-name="그룹 835" clip-path="url(#clip-path)">
    <path id="패스_694" data-name="패스 694" d="M82.3.206a.688.688,0,0,0-.719.519c-1.6,4.187-6.405,16.68-6.405,16.68S70.413,5.025,68.77.725a.688.688,0,0,0-.711-.518h-1.4V18.072h.695V2.327l6.074,15.744h2.183L81.647,2.358V18.072h1.6V.206Z" transform="translate(-18.712 -0.058)" fill="#1a1311"/>
    <path id="패스_695" data-name="패스 695" d="M10.917.783a7.131,7.131,0,0,1,4.65,3.43l.283.443a.221.221,0,0,0,.189.1h.006l.079,0v-2.2l-.035-.041a.418.418,0,0,0-.052-.055,9.559,9.559,0,0,0-7.6-2.4A9.563,9.563,0,0,0,1.677,3.969,8.553,8.553,0,0,0,.2,10.888a8.944,8.944,0,0,0,6.433,6.9,10.435,10.435,0,0,0,3.077.486,9.646,9.646,0,0,0,6.343-2.494l.067-.057V13.581l-.069-.014a.232.232,0,0,0-.24.089l-.082.118c-.037.053-.073.108-.115.16-.132.172-.262.347-.389.522a9.841,9.841,0,0,1-.878,1.088,6.7,6.7,0,0,1-4.8,2.061H9.462A6.737,6.737,0,0,1,4.6,15.4,8.915,8.915,0,0,1,2.188,9.2a8.732,8.732,0,0,1,2.54-6.48A6.435,6.435,0,0,1,10.917.783" transform="translate(0 0)" fill="#1a1311"/>
    <path id="패스_696" data-name="패스 696" d="M33.548,1.241C33.19.312,33.1.244,32.157.2l-.084,0H32a.844.844,0,0,0-.875.655c-.814,2.133-2.9,7.57-4.414,11.524-.735,1.917-2.184,5.692-2.184,5.692h.694l2.74-7.171h7.273l2.732,7.119.02.052h2.041L33.548,1.241m1.428,8.984H28.222L31.6,1.438Z" transform="translate(-6.885 -0.056)" fill="#1a1311"/>
    <path id="패스_697" data-name="패스 697" d="M182.874.21V15.346s-6.5-10.261-9.3-14.7a.808.808,0,0,0-.726-.436h-1.534V18.072h.7V1.686l10.061,15.9c.24.379.393.558.749.558a3.112,3.112,0,0,0,.56-.074.225.225,0,0,0,.183-.222V.21Z" transform="translate(-48.089 -0.058)" fill="#1a1311"/>
    <path id="패스_698" data-name="패스 698" d="M162.767.858V.219H153.51V18.065s6.736,0,9.177.011h.081v-.632h-7.3V10.6h4.845v-.66l-4.848,0V.858Z" transform="translate(-43.092 -0.061)" fill="#1a1311"/>
    <path id="패스_699" data-name="패스 699" d="M191.546.211v.68h5.618V18.072h1.96V.891c.714,0,5.618,0,5.618,0V.211Z" transform="translate(-53.77 -0.059)" fill="#1a1311"/>
    <path id="패스_700" data-name="패스 700" d="M51.979,17.435V.2H50.035V18.069h9.126v-.634Z" transform="translate(-14.046 -0.055)" fill="#1a1311"/>
    <path id="패스_701" data-name="패스 701" d="M103.551,0h-.026a9.377,9.377,0,0,0-9.564,9.109,8.865,8.865,0,0,0,2.784,6.468,9.726,9.726,0,0,0,6.747,2.7h.034a9.772,9.772,0,0,0,4.075-.885,5.009,5.009,0,0,0,.879-.537c.3-.215.621-.442.732-.368a.239.239,0,0,1,.108.178,2.228,2.228,0,0,1-.7,1.277,13.764,13.764,0,0,1-5.6,3.847l-.073.026.228.714.076-.022c4.478-1.326,9.815-4.721,9.815-13.356A9.349,9.349,0,0,0,103.551,0M99.064,2.363a6.634,6.634,0,0,1,9.285.355A9.012,9.012,0,0,1,110.9,9.133a9.136,9.136,0,0,1-2.51,6.386,6.68,6.68,0,0,1-9.753,0,9.094,9.094,0,0,1-2.423-7.557,8.522,8.522,0,0,1,2.848-5.6" transform="translate(-26.376 0)" fill="#1a1311"/>
    <path id="패스_702" data-name="패스 702" d="M243.87.849V.21h-9.258V18.056s6.737,0,9.177.011h.081v-.632h-7.3V10.586h4.846v-.66l-4.849,0V.849Z" transform="translate(-65.859 -0.059)" fill="#1a1311"/>
    <path id="패스_703" data-name="패스 703" d="M260.537.849V.21H251.28V18.056s6.737,0,9.177.011h.081v-.632h-7.3V10.586h4.845v-.66l-4.848,0V.849Z" transform="translate(-70.538 -0.059)" fill="#1a1311"/>
    <path id="패스_704" data-name="패스 704" d="M226.3,17.029l-.06.042s-.213.15-.265.185a1.956,1.956,0,0,1-1.483.289,1.812,1.812,0,0,1-1.119-.862l-.291-.456c-.317-.493-.644-1-.944-1.52a4.767,4.767,0,0,0-1.887-1.941,6.38,6.38,0,0,0,4.942-7.16A6.486,6.486,0,0,0,218.869.22C217.386.2,215.921.2,214.3.211l-1.128,0V18.076h1.952V12.941l.742,0h.156c.729,0,1.416.006,2.122-.01h.013a1.033,1.033,0,0,1,.985.543c.639,1.036,1.331,2.128,2.242,3.538a3.264,3.264,0,0,0,2.176,1.428,3.53,3.53,0,0,0,.593.051,3.367,3.367,0,0,0,2.015-.669,3.043,3.043,0,0,0,.395-.385l.045-.051Zm-4.941-5.874a3.639,3.639,0,0,1-2.7,1.146H218.6c-.432-.008-.908-.012-1.454-.012-.374,0-.748,0-1.116,0h-.914V.885c.371,0,.739-.006,1.106-.01C217.187.863,218.189.85,219.2.9a3.406,3.406,0,0,1,2.474,1.443,6.872,6.872,0,0,1-.316,8.811" transform="translate(-59.839 -0.057)" fill="#1a1311"/>
    <path id="패스_705" data-name="패스 705" d="M140.3.206a.688.688,0,0,0-.719.519c-1.6,4.187-6.405,16.68-6.405,16.68s-4.759-12.38-6.4-16.68a.688.688,0,0,0-.711-.518h-1.4l0,17.865h.694V2.327l6.075,15.744h2.182l6.036-15.714V18.072h1.6V.206Z" transform="translate(-34.995 -0.058)" fill="#1a1311"/>
  </g>
</svg>
